<svg width="261" height="124" viewBox="0 0 261 124" fill="none" xmlns="http://www.w3.org/2000/svg">
<path d="M74.261 36.0746C74.2316 39.3649 74.9415 42.6212 76.3405 45.6126C77.7394 48.604 79.7932 51.2573 82.3559 53.3843C87.5904 58.0012 94.3934 60.5417 101.437 60.5098C101.437 60.963 101.437 61.3934 101.437 61.8466C101.522 66.749 100.607 71.6188 98.7466 76.1706C96.8859 80.7224 94.1167 84.8647 90.6012 88.3548C87.1569 91.8362 83.0348 94.6055 78.4786 96.4987C73.9225 98.392 69.025 99.3707 64.0759 99.3771C59.1268 99.3834 54.2267 98.4172 49.6656 96.5356C45.1044 94.6541 40.9749 91.8954 37.5213 88.4228C33.9893 84.9899 31.2016 80.8934 29.3257 76.3791C27.4498 71.8648 26.5243 67.0258 26.6047 62.1524C26.533 57.2583 27.462 52.3996 29.3368 47.8625C31.2117 43.3255 33.9945 39.202 37.5213 35.7348C40.914 32.1638 45.035 29.3312 49.6171 27.4206C54.1991 25.5101 59.1399 24.5642 64.1191 24.6444H76.2962C79.602 24.6519 82.8766 24.0197 85.9323 22.7843C88.988 21.5488 91.7646 19.7344 94.1026 17.4451C96.4407 15.1558 98.2942 12.4367 99.5567 9.44396C100.819 6.45117 101.466 3.2436 101.46 0.00531458H64.0844C55.6898 -0.103326 47.3598 1.45468 39.5966 4.58538C31.8334 7.71609 24.7979 12.3546 18.9145 18.2212C6.30943 30.3652 0.00691194 45.0089 0.00691194 62.1524C-0.119769 70.3368 1.49614 78.4573 4.75158 85.9958C8.00701 93.5344 12.8305 100.326 18.9145 105.936C24.8212 111.762 31.8645 116.363 39.6248 119.465C47.3851 122.567 55.7036 124.107 64.0844 123.994C78.7792 124.203 93.0545 119.193 104.27 109.89C109.335 119.292 117.245 123.994 128 123.994V36.0746H74.261Z" fill="white"/>
<path d="M242.104 18.1553C233.083 9.48557 221.59 3.58182 209.079 1.19049C196.567 -1.20084 183.599 0.0276213 171.814 4.7206C160.029 9.41357 149.956 17.3603 142.869 27.5559C135.783 37.7515 132 49.738 132 62C132 74.2619 135.783 86.2485 142.869 96.4441C149.956 106.64 160.029 114.586 171.814 119.279C183.599 123.972 196.567 125.201 209.079 122.81C221.59 120.418 233.083 114.514 242.104 105.845C248.095 100.087 252.847 93.252 256.089 85.7291C259.331 78.2061 261 70.1429 261 62C261 53.857 259.331 45.7939 256.089 38.2709C252.847 30.748 248.095 23.9126 242.104 18.1553ZM226.847 38.9041L212.115 99.4028C211.948 100.146 211.534 100.817 210.936 101.314C210.338 101.811 209.587 102.108 208.798 102.16C208.009 102.212 207.224 102.016 206.561 101.601C205.898 101.187 205.393 100.576 205.122 99.8621L193.397 70.5874C193.07 69.7631 192.428 69.0899 191.602 68.7053L157.953 52.886C157.264 52.5633 156.698 52.0399 156.335 51.3902C155.973 50.7405 155.833 49.9976 155.935 49.2669C156.036 48.5363 156.375 47.855 156.903 47.3201C157.431 46.7852 158.121 46.4238 158.874 46.2871L222.617 34.714C223.213 34.6082 223.827 34.6466 224.405 34.8258C224.982 35.0049 225.504 35.3191 225.923 35.7402C226.343 36.1613 226.647 36.676 226.808 37.238C226.97 37.8 226.983 38.3918 226.847 38.9601" fill="white"/>
</svg>
