<svg xmlns="http://www.w3.org/2000/svg"
viewBox="0 0 299.65 149.1"><title>GO NEGRO</title>
<g id="GO"><path d="M161.56,154.54q0,11.94,9.38,20.36a32.7,32.7,0,0,0,22,8.38c0,.52-.07,1-.07,1.57A43.3,43.3,0,0,1,180.37,216,40.82,40.82,0,0,1,149.83,229a41.24,41.24,0,0,1-30.63-12.85,42.62,42.62,0,0,1-12.58-30.9,43.23,43.23,0,0,1,12.58-31.08,41,41,0,0,1,30.63-13h14a28.92,28.92,0,0,0,29-29h-43q-30.27,0-52.05,21.42T76,185.21q0,30.27,21.79,51.5T149.83,258q26.43,0,46.31-16.59Q204.89,258,223.48,258V154.54H161.56Z" 
transform="translate(-75.99 -112.11)"/>
<path d="M354,135.32a73.74,73.74,0,1,0,0,104.29,73.76,73.76,0,0,0,0-104.29M336.59,160l-16.84,72a4.16,4.16,0,0,1-7.94.55l-13.45-34.93a4.17,4.17,0,0,0-2.06-2.25l-38.47-18.82a4.16,4.16,0,0,1,1.06-7.83L331.76,155a4.16,4.16,0,0,1,4.83,5" 
transform="translate(-75.99 -112.11)"/>
</g>
</svg>